<svg width="24" height="24" viewBox="0 0 24 24" fill="none" xmlns="http://www.w3.org/2000/svg">
<path d="M11.7667 0.422241C9.51636 0.422241 7.31658 1.08954 5.44551 2.33974C3.57445 3.58995 2.11613 5.36692 1.25497 7.44593C0.393815 9.52495 0.168497 11.8126 0.607511 14.0197C1.04653 16.2268 2.13015 18.2541 3.72136 19.8453C5.31257 21.4365 7.3399 22.5202 9.54697 22.9592C11.754 23.3982 14.0417 23.1729 16.1208 22.3117C18.1998 21.4506 19.9767 19.9922 21.2269 18.1212C22.4772 16.2501 23.1444 14.0503 23.1444 11.8C23.1398 8.78387 21.9396 5.89257 19.8069 3.75983C17.6741 1.62708 14.7828 0.426871 11.7667 0.422241V0.422241ZM13.0795 18.3466V19.2393C13.0795 19.5875 12.9412 19.9214 12.695 20.1676C12.4488 20.4138 12.1148 20.5522 11.7667 20.5522C11.4185 20.5522 11.0846 20.4138 10.8384 20.1676C10.5922 19.9214 10.4538 19.5875 10.4538 19.2393V18.3641H9.14103C8.79285 18.3641 8.45893 18.2258 8.21272 17.9796C7.96652 17.7334 7.82821 17.3995 7.82821 17.0513C7.82821 16.7031 7.96652 16.3692 8.21272 16.123C8.45893 15.8768 8.79285 15.7385 9.14103 15.7385H12.6419C12.9158 15.7385 13.1785 15.6297 13.3721 15.436C13.5658 15.2423 13.6746 14.9796 13.6746 14.7057C13.678 14.4983 13.6177 14.2948 13.5019 14.1227C13.3861 13.9506 13.2204 13.8181 13.027 13.743L9.4211 12.2901C8.67842 11.9765 8.06014 11.4264 7.66232 10.7252C7.2645 10.024 7.10943 9.21107 7.2212 8.41268C7.33298 7.6143 7.70534 6.87519 8.28042 6.31021C8.8555 5.74523 9.60109 5.38603 10.4013 5.28843V4.3607C10.4013 4.01252 10.5397 3.6786 10.7859 3.4324C11.0321 3.1862 11.366 3.04788 11.7142 3.04788C12.0623 3.04788 12.3963 3.1862 12.6425 3.4324C12.8887 3.6786 13.027 4.01252 13.027 4.3607V5.23592H14.3398C14.688 5.23592 15.0219 5.37423 15.2681 5.62043C15.5143 5.86663 15.6526 6.20056 15.6526 6.54874C15.6526 6.89692 15.5143 7.23084 15.2681 7.47704C15.0219 7.72324 14.688 7.86156 14.3398 7.86156H10.8389C10.5627 7.81049 10.2775 7.87125 10.0461 8.03046C9.81466 8.18967 9.65596 8.43429 9.60489 8.71052C9.55382 8.98674 9.61458 9.27194 9.77379 9.50337C9.933 9.7348 10.1776 9.8935 10.4538 9.94457L14.0597 11.3799C14.7904 11.7035 15.3958 12.2564 15.7841 12.9548C16.1724 13.6533 16.3226 14.4593 16.2118 15.2507C16.101 16.0421 15.7353 16.7759 15.1701 17.3408C14.6049 17.9058 13.871 18.2712 13.0795 18.3816V18.3466Z" fill="#063C88"/>
</svg>
