<svg width="24" height="24" viewBox="0 0 24 24" fill="none" xmlns="http://www.w3.org/2000/svg">
<path d="M5.34836 13.0642H2.81997C2.12177 13.0642 1.55577 13.6302 1.55577 14.3284V20.6494C1.55577 21.3476 2.12177 21.9136 2.81997 21.9136H5.34836C6.04656 21.9136 6.61256 21.3476 6.61256 20.6494V14.3284C6.61256 13.6302 6.04656 13.0642 5.34836 13.0642Z" fill="white"/>
<path d="M13.0308 1.6864H10.5024C9.80424 1.6864 9.23824 2.2524 9.23824 2.9506V20.6494C9.23824 21.3476 9.80424 21.9136 10.5024 21.9136H13.0308C13.729 21.9136 14.295 21.3476 14.295 20.6494V2.9506C14.295 2.2524 13.729 1.6864 13.0308 1.6864Z" fill="white"/>
<path d="M20.7133 6.74316H18.1849C17.4867 6.74316 16.9207 7.30916 16.9207 8.00736V20.6493C16.9207 21.3475 17.4867 21.9135 18.1849 21.9135H20.7133C21.4115 21.9135 21.9775 21.3475 21.9775 20.6493V8.00736C21.9775 7.30916 21.4115 6.74316 20.7133 6.74316Z" fill="white"/>
</svg>
