<svg width="615" height="601" viewBox="0 0 615 601" fill="none" xmlns="http://www.w3.org/2000/svg">
<path d="M614.689 207.604C614.689 247.27 582.533 279.427 542.866 279.427C503.199 279.427 471.043 247.27 471.043 207.604L471.043 -197.091C471.043 -236.758 503.199 -268.914 542.866 -268.914C582.533 -268.914 614.689 -236.758 614.689 -197.091L614.689 207.604Z" fill="#4BB6AE"/>
<circle cx="542.865" cy="382.309" r="71.8231" transform="rotate(-180 542.865 382.309)" fill="#4BB6AE"/>
<rect width="143.646" height="702.818" rx="71.8231" transform="matrix(-1 5.16191e-08 -2.98023e-08 1 404.896 307.847)" fill="#4BB6AE"/>
<ellipse cx="72.2294" cy="71.8231" rx="72.2294" ry="71.8231" transform="matrix(1 0 0 -1 85.7606 453.141)" fill="#4BB6AE"/>
<path d="M331.626 98.6416C371.293 98.6416 403.449 130.798 403.449 170.465C403.449 210.132 371.293 242.288 331.626 242.288L-73.0682 242.288C-112.735 242.288 -144.891 210.132 -144.891 170.465C-144.891 130.798 -112.735 98.6416 -73.0683 98.6416L331.626 98.6416Z" fill="#4BB6AE"/>
</svg>
