<svg width="691" height="587" viewBox="0 0 691 587" fill="none" xmlns="http://www.w3.org/2000/svg">
<rect width="143.646" height="410.808" rx="71.8231" transform="matrix(1 -8.14215e-08 -8.14215e-08 -1 547.354 410.837)" fill="#4BB6AE"/>
<circle cx="71.8231" cy="71.8231" r="71.8231" transform="matrix(1 -8.14215e-08 -8.14215e-08 -1 547.354 585.542)" fill="#4BB6AE"/>
<rect width="143.646" height="702.818" rx="71.8231" transform="matrix(-1 0 -8.14215e-08 1 319.135 261.32)" fill="#4BB6AE"/>
<ellipse cx="72.2294" cy="71.8231" rx="72.2294" ry="71.8231" transform="matrix(-1 0 0 1 144.459 262.967)" fill="#4BB6AE"/>
<path d="M422.473 194.692C462.365 194.692 494.703 162.354 494.703 122.463V122.463C494.703 82.5718 462.365 50.2336 422.474 50.2336L-142.741 50.2336V194.692L422.473 194.692Z" fill="#4BB6AE"/>
</svg>
